<?xml version="1.0" encoding="UTF-8" standalone="no"?><!DOCTYPE svg PUBLIC "-//W3C//DTD SVG 1.1//EN" "http://www.w3.org/Graphics/SVG/1.1/DTD/svg11.dtd"><svg width="100%" height="100%" viewBox="0 0 1473 1133" version="1.1" xmlns="http://www.w3.org/2000/svg" xmlns:xlink="http://www.w3.org/1999/xlink" xml:space="preserve" xmlns:serif="http://www.serif.com/" style="fill-rule:evenodd;clip-rule:evenodd;stroke-linejoin:round;stroke-miterlimit:2;"><path d="M92.447,808.987l137.281,-0.202l0.422,-25.263l35.351,0.16l-0.007,-25.141l38.513,-0.025l0.338,-23.196l36.932,0.03l0.087,-25.294l37.214,0.006l-0.03,-22.978l38.114,0.033l-0.085,-24.711l35.725,-0.11l0.219,-23.169l37.987,0.014l0.182,-24.967l137.279,-0l0,408.819l-535.522,0l0,-214.006Z" style="fill-opacity:0.1;"/><path d="M530.51,1003.33l-39.821,-0.059l-0.423,-25.263l-35.35,0.16l0.006,-25.141l-38.512,-0.025l-0.338,-23.195l-36.932,0.029l-0.088,-25.294l-37.214,0.006l0.03,-22.978l-38.114,0.033l0.086,-24.711l-35.725,-0.109l-0.219,-23.17l-37.987,0.015l-0.182,-24.968l-137.28,0l0,37.107l99.54,-0.104l270.353,177.327l68.17,0l0,-19.66Z" style="fill-opacity:0.2;"/><rect x="627.969" y="614.174" width="751.956" height="408.819" style="fill-opacity:0.1;"/><path d="M1379.92,433.794l-643.739,-433.794l-643.739,435.508l0,373.155l137.286,0l0.227,25.026l37.845,-0.042l280.428,-193.796l758.485,-25.677l73.207,-0l0,-180.38Z" style="fill-opacity:0.1;"/><path id="strop" d="M1309.92,614.174l-782.068,-0l0,40l782.068,-0l0,-40Z" style="fill:#543ffc;"/><rect id="podlaha" x="92.447" y="1022.99" width="1287.48" height="40" style="fill:#543ffc;"/><rect id="zaklady" x="92.447" y="1063.11" width="1287.48" height="69.88" style="fill:#543ffc;fill-opacity:0.25;"/><path id="stena" d="M92.447,467.665l0,525.196l40,0.132l0,-548.436l-40,23.108Z" style="fill:#543ffc;"/><path id="stena1" serif:id="stena" d="M1379.92,467.665l0,301.196l-40,0.132l0,-324.436l40,23.108Z" style="fill:#543ffc;"/><rect x="1043.15" y="768.993" width="127.723" height="254" style="fill-opacity:0.1;"/><rect x="1339.92" y="768.993" width="40" height="254" style="fill-opacity:0.1;"/><path d="M1158.55,895.992c-0,-3.657 -2.965,-6.622 -6.622,-6.622c-0.014,0 -0.027,0 -0.04,0c-3.657,0 -6.622,2.965 -6.622,6.622c-0,0.001 -0,0.001 -0,0.002c-0,3.657 2.965,6.622 6.622,6.622c0.013,-0 0.026,-0 0.04,-0c3.657,-0 6.622,-2.965 6.622,-6.622c-0,-0.001 -0,-0.001 -0,-0.002Z" style="fill-opacity:0.1;"/><path d="M775.173,1002.44c-0,-3.658 -2.965,-6.622 -6.622,-6.622c-0.014,-0 -0.027,-0 -0.04,-0c-3.657,-0 -6.622,2.964 -6.622,6.622c-0,0 -0,0.001 -0,0.001c-0,3.658 2.965,6.622 6.622,6.622c0.013,0 0.026,0 0.04,0c3.657,0 6.622,-2.964 6.622,-6.622c-0,-0 -0,-0.001 -0,-0.001Z" style="fill-opacity:0.1;"/><path d="M775.173,969.581c-0,-3.658 -2.965,-6.622 -6.622,-6.622c-0.014,-0 -0.027,-0 -0.04,-0c-3.657,-0 -6.622,2.964 -6.622,6.622c-0,0 -0,0.001 -0,0.001c-0,3.658 2.965,6.622 6.622,6.622c0.013,0 0.026,0 0.04,0c3.657,0 6.622,-2.964 6.622,-6.622c-0,-0 -0,-0.001 -0,-0.001Z" style="fill-opacity:0.1;"/><rect x="650.012" y="360.174" width="127.723" height="254" style="fill-opacity:0.1;"/><path d="M765.408,487.173c0,-3.657 -2.965,-6.622 -6.622,-6.622c-0.013,0 -0.027,0 -0.04,0c-3.657,0 -6.622,2.965 -6.622,6.622c0,0.001 0,0.001 0,0.002c0,3.657 2.965,6.622 6.622,6.622c0.013,-0 0.027,-0 0.04,-0c3.657,-0 6.622,-2.965 6.622,-6.622c0,-0.001 0,-0.001 0,-0.002Z" style="fill-opacity:0.1;"/><rect x="713.873" y="946.825" width="109.315" height="76.168" style="fill-opacity:0.1;"/><rect x="1030.11" y="547.43" width="11.414" height="66.728" style="fill-opacity:0.1;"/><rect x="1158.17" y="547.43" width="11.414" height="66.728" style="fill-opacity:0.1;"/><path d="M1007.84,535.846l-0,11.584l181.441,0l0,-11.584l-181.441,0Z" style="fill-opacity:0.1;"/><path d="M1143.2,512.32l-19.703,-0l3.164,23.526l13.374,0l3.165,-23.526Z" style="fill-opacity:0.1;"/><path id="podkrovi" d="M1131.99,284.068l-395.801,-231.068l-395.801,231.068l791.602,-0Z" style="fill:#543ffc;fill-opacity:0.25;"/><path id="strecha" d="M1472.37,435.324l-736.186,-435.324l-736.186,435.324l0,55.845l736.186,-426.056l736.186,424.295l0,-54.084Z" style="fill:#543ffc;"/></svg>